<mxfile host="app.diagrams.net" modified="2023-03-26T16:43:33.773Z" agent="Mozilla/5.0 (Windows NT 10.0; Win64; x64) AppleWebKit/537.36 (KHTML, like Gecko) Chrome/111.0.0.0 Safari/537.36" etag="Jq8grjyuVum9n_KoZvRW" version="21.1.1" type="github">
  <diagram name="Page-1" id="GRBONhaE5VYSl_cIN5zL">
    <mxGraphModel dx="1434" dy="707" grid="1" gridSize="10" guides="1" tooltips="1" connect="1" arrows="1" fold="1" page="1" pageScale="1" pageWidth="1100" pageHeight="850" math="0" shadow="0">
      <root>
        <mxCell id="0" />
        <mxCell id="1" parent="0" />
        <mxCell id="VhixGoPvEmZmPIJjaZZ9-17" style="edgeStyle=orthogonalEdgeStyle;rounded=0;orthogonalLoop=1;jettySize=auto;html=1;" edge="1" parent="1" source="bHiuAwHFq15JDa2T4GA8-14" target="VhixGoPvEmZmPIJjaZZ9-1">
          <mxGeometry relative="1" as="geometry" />
        </mxCell>
        <mxCell id="bHiuAwHFq15JDa2T4GA8-14" value="" style="outlineConnect=0;dashed=0;verticalLabelPosition=bottom;verticalAlign=top;align=center;html=1;shape=mxgraph.aws3.machine_learning;fillColor=#2E73B8;gradientColor=none;" parent="1" vertex="1">
          <mxGeometry x="751.75" y="91.5" width="76.5" height="93" as="geometry" />
        </mxCell>
        <mxCell id="bHiuAwHFq15JDa2T4GA8-15" value="" style="image;aspect=fixed;html=1;points=[];align=center;fontSize=12;image=img/lib/azure2/databases/Data_Factory.svg;" parent="1" vertex="1">
          <mxGeometry x="110" y="104" width="68" height="68" as="geometry" />
        </mxCell>
        <object label="" id="bHiuAwHFq15JDa2T4GA8-16">
          <mxCell style="endArrow=classic;html=1;rounded=0;" parent="1" source="bHiuAwHFq15JDa2T4GA8-15" target="bHiuAwHFq15JDa2T4GA8-17" edge="1">
            <mxGeometry width="50" height="50" relative="1" as="geometry">
              <mxPoint x="180" y="140" as="sourcePoint" />
              <mxPoint x="280" y="140" as="targetPoint" />
            </mxGeometry>
          </mxCell>
        </object>
        <mxCell id="bHiuAwHFq15JDa2T4GA8-18" value="" style="sketch=0;outlineConnect=0;fontColor=#232F3E;gradientColor=none;fillColor=#067F68;strokeColor=none;dashed=0;verticalLabelPosition=bottom;verticalAlign=top;align=center;html=1;fontSize=12;fontStyle=0;aspect=fixed;pointerEvents=1;shape=mxgraph.aws4.sagemaker_model;" parent="1" vertex="1">
          <mxGeometry x="472" y="99" width="78" height="78" as="geometry" />
        </mxCell>
        <object label="" id="bHiuAwHFq15JDa2T4GA8-19">
          <mxCell style="endArrow=classic;html=1;rounded=0;" parent="1" source="bHiuAwHFq15JDa2T4GA8-17" target="bHiuAwHFq15JDa2T4GA8-18" edge="1">
            <mxGeometry width="50" height="50" relative="1" as="geometry">
              <mxPoint x="345" y="138.5" as="sourcePoint" />
              <mxPoint x="440" y="139" as="targetPoint" />
            </mxGeometry>
          </mxCell>
        </object>
        <object label="" id="bHiuAwHFq15JDa2T4GA8-20">
          <mxCell style="endArrow=classic;html=1;rounded=0;exitX=-0.031;exitY=0.683;exitDx=0;exitDy=0;exitPerimeter=0;" parent="1" source="bHiuAwHFq15JDa2T4GA8-17" edge="1">
            <mxGeometry width="50" height="50" relative="1" as="geometry">
              <mxPoint x="270" y="150" as="sourcePoint" />
              <mxPoint x="178" y="150" as="targetPoint" />
            </mxGeometry>
          </mxCell>
        </object>
        <mxCell id="bHiuAwHFq15JDa2T4GA8-17" value="" style="image;aspect=fixed;html=1;points=[];align=center;fontSize=12;image=img/lib/azure2/integration/API_Management_Services.svg;" parent="1" vertex="1">
          <mxGeometry x="330" y="108" width="65" height="60" as="geometry" />
        </mxCell>
        <mxCell id="VhixGoPvEmZmPIJjaZZ9-3" value="" style="edgeStyle=orthogonalEdgeStyle;rounded=0;orthogonalLoop=1;jettySize=auto;html=1;" edge="1" parent="1" source="VhixGoPvEmZmPIJjaZZ9-1" target="bHiuAwHFq15JDa2T4GA8-18">
          <mxGeometry relative="1" as="geometry" />
        </mxCell>
        <mxCell id="VhixGoPvEmZmPIJjaZZ9-1" value="" style="sketch=0;outlineConnect=0;fontColor=#232F3E;gradientColor=none;fillColor=#3F8624;strokeColor=none;dashed=0;verticalLabelPosition=bottom;verticalAlign=top;align=center;html=1;fontSize=12;fontStyle=0;aspect=fixed;pointerEvents=1;shape=mxgraph.aws4.iot_analytics_pipeline;" vertex="1" parent="1">
          <mxGeometry x="600" y="116.46" width="80" height="43.08" as="geometry" />
        </mxCell>
        <mxCell id="VhixGoPvEmZmPIJjaZZ9-11" value="" style="edgeStyle=orthogonalEdgeStyle;rounded=0;orthogonalLoop=1;jettySize=auto;html=1;" edge="1" parent="1" source="VhixGoPvEmZmPIJjaZZ9-4" target="VhixGoPvEmZmPIJjaZZ9-5">
          <mxGeometry relative="1" as="geometry" />
        </mxCell>
        <mxCell id="VhixGoPvEmZmPIJjaZZ9-4" value="" style="image;aspect=fixed;html=1;points=[];align=center;fontSize=12;image=img/lib/azure2/databases/SQL_Server.svg;" vertex="1" parent="1">
          <mxGeometry x="756" y="630" width="68" height="68" as="geometry" />
        </mxCell>
        <mxCell id="VhixGoPvEmZmPIJjaZZ9-12" value="" style="edgeStyle=orthogonalEdgeStyle;rounded=0;orthogonalLoop=1;jettySize=auto;html=1;" edge="1" parent="1" source="VhixGoPvEmZmPIJjaZZ9-5" target="VhixGoPvEmZmPIJjaZZ9-6">
          <mxGeometry relative="1" as="geometry" />
        </mxCell>
        <mxCell id="VhixGoPvEmZmPIJjaZZ9-5" value="Train data" style="strokeWidth=2;html=1;shape=mxgraph.flowchart.stored_data;whiteSpace=wrap;" vertex="1" parent="1">
          <mxGeometry x="740" y="530" width="100" height="60" as="geometry" />
        </mxCell>
        <mxCell id="VhixGoPvEmZmPIJjaZZ9-13" value="" style="edgeStyle=orthogonalEdgeStyle;rounded=0;orthogonalLoop=1;jettySize=auto;html=1;" edge="1" parent="1" source="VhixGoPvEmZmPIJjaZZ9-6" target="VhixGoPvEmZmPIJjaZZ9-8">
          <mxGeometry relative="1" as="geometry" />
        </mxCell>
        <mxCell id="VhixGoPvEmZmPIJjaZZ9-14" style="edgeStyle=orthogonalEdgeStyle;rounded=0;orthogonalLoop=1;jettySize=auto;html=1;" edge="1" parent="1" source="VhixGoPvEmZmPIJjaZZ9-6" target="bHiuAwHFq15JDa2T4GA8-14">
          <mxGeometry relative="1" as="geometry" />
        </mxCell>
        <mxCell id="VhixGoPvEmZmPIJjaZZ9-18" value="Re-training pipeline" style="edgeLabel;html=1;align=center;verticalAlign=middle;resizable=0;points=[];" vertex="1" connectable="0" parent="VhixGoPvEmZmPIJjaZZ9-14">
          <mxGeometry x="0.1405" y="-1" relative="1" as="geometry">
            <mxPoint as="offset" />
          </mxGeometry>
        </mxCell>
        <mxCell id="VhixGoPvEmZmPIJjaZZ9-6" value="Data preprocessing and tokenization&amp;nbsp;" style="rounded=0;whiteSpace=wrap;html=1;" vertex="1" parent="1">
          <mxGeometry x="730" y="430" width="120" height="60" as="geometry" />
        </mxCell>
        <mxCell id="VhixGoPvEmZmPIJjaZZ9-15" style="edgeStyle=orthogonalEdgeStyle;rounded=0;orthogonalLoop=1;jettySize=auto;html=1;" edge="1" parent="1" source="VhixGoPvEmZmPIJjaZZ9-8" target="VhixGoPvEmZmPIJjaZZ9-9">
          <mxGeometry relative="1" as="geometry" />
        </mxCell>
        <mxCell id="VhixGoPvEmZmPIJjaZZ9-8" value="Keras based neural network" style="shape=image;imageAspect=0;aspect=fixed;verticalLabelPosition=bottom;verticalAlign=top;image=data:image/png,iVBORw0KGgoAAAANSUhEUgAAAggAAAGgCAYAAADPW599AAAAAXNSR0IArs4c6QAAIABJREFUeF7tnQW0NkeVtfcPw+Ay6CCDBnd3CIMT3N0S3CG4xPBAcHd3d3cnQAgeIIMNzuDOzL+epF5yv5vbVdXd1d3V3fus9a0wc0t39dt96sg+/08WI2AE1oLAGSWdLmz2RJL2lnSFjM1/XdJDJf08tP2VpG9I+t+Mvm5iBIzATBH4fzNdt5dtBIxAHgIoBU8NTc8pabe8btFWP5V0sKR/SLqXpMMLjOkhjIARqAwBKwiVHYiXYwQKIHAuSfx7XYGxcoe4naRPSPq+pL/kdnI7I2AE6kXACkK9Z+OVGYG2CFxE0j0k3bptx0Lt/yjp/ZK+Kukhhcb0MEbACEyEgBWEiYD3tEagIAKnDrf3MxUcs8RQrOs3kv5UYjCPYQSMwLgIWEEYF2/PZgRKInBRSTeTdJ+SgxYciyDG90i6rqS/FhzXQxkBIzACAlYQRgDZUxiBwggcU9KxZnYzP1DSAyX9X2EsPJwRMAIDIWAFYSBgPawRGAiB40h6jaRrDzT+kMM+WdIHJL19yEk8thEwAmUQsIJQBkePYgTGQgB/PkrCXOXvks7m1Mi5Hp/XvSYErCCs6bS91zkjgB9/H0kXmPMmtqwdC8g7TLa0kNP0NhaJgBWERR6rN7UwBJ4uac+ZWw62H8mfJT1a0gELOytvxwgsBgErCIs5Sm9koQg8QtJ+C90b20L5gcb5twveo7dmBGaJgBWEWR6bF70SBIj8p17CkuVvku4v6SlL3qT3ZgTmiIAVhDmemte8BgTOL+ldkiAbWoNcKWQ4rGGv3qMRmAUCVhBmcUxe5AoRgK6Yegprkd9Luo6kD65lw96nEagdASsItZ+Q17c2BE4u6eOSzr62jYf9nk/SoSvdu7dtBKpCwApCVcfhxRgBvUzSLVeMwzclUZbajIsrfgi89ToQsIJQxzl4FUYABHaTdJihOCJrY1/jYASMwLQIWEGYFn/PbgQ2CFwsFDY6iSE5AoFj2IrgJ8EITIuAFYRp8ffsRmCDAIWMHms4/okAvAgnlfQPY2IEjMA0CFhBmAZ3z2oEtiLA75DSyJajEIAf4SaS3mRQjIARmAYBKwjT4O5ZjcBWBH4j6USG5GgIfFHSRaw8+ckwAtMgYAVhGtw9qxHYIHBZSe+TdGxDsiMCxGZ8ztgYASMwPgJWEMbH3DMaga0IPETSowxJIwJ/tfLkp8MITIOAFYRpcPesRgAEjinp74YiicDukj6SbOUGRsAIFEXACkJROD2YEWiFwBskXb9Vj3U2fkIo6LTO3XvXRmAiBKwgTAS8pzUCzvPPfga+K+lCkgjmtBgBIzASAlYQRgLa0xiBbQjcVdIzjEo2AqeU9PPs1m5oBIxAbwSsIPSG0AMYgU4IHChp704919npAEmPWOfWvWsjMA0CVhCmwd2zrhsBfncHSbr3umFovXu/r1pD5g5GoDsC/sF1x849jUBXBE4h6WddO6+433El/XnF+/fWjcCoCFhBGBVuT2YEjkDACkK3B+HBrlfRDTj3MgJdELCC0AU19zEC/RAg4O6n/YZYZe8XStpzlTv3po3ABAhYQZgAdE+5egT2c8Bdp2fACkIn2NzJCHRDwApCN9zcywj0QeD/+nRecd9XSrq1S0Cv+Anw1kdFwArCqHB7MiNwBAJWELo9CLhlKN70/W7d3csIGIE2CFhBaIOW2xqBMghYQeiO4zkkfbN7d/c0AkYgFwErCLlIuZ0RKIeAFYTuWFpB6I6dexqBVghYQWgFlxsbgSIIWEHoDqMVhO7YuacRaIWAFYRWcLmxESiCgBWE7jBaQeiOnXsagVYIWEFoBZcbG4EiCFhB6A6jFYTu2LmnEWiFgBWEVnC5sREogoAVhO4wWkHojp17GoFWCFhBaAWXGxuBIghYQegOIxkMKAkWI2AEBkbACsLAAHt4I7ADAlYQ+j0Wn5J0DUm/7jeMexsBIxBDwAqCnw8jMD4CVhD6Y/5FSRfqP4xHMAJGoAkBKwh+NozA+Ag8RNKjxp92cTN+SdIVbElY3Ll6Q5UgYAWhkoPwMlaFwAfDh21Vmx5os5+UdOmBxvawRmDVCFhBWPXxe/MjIXBcSaeXdB1JjxtpzjVN8y1JF5X02zVt2ns1AkMjYAVhaIQ9/toReKCky0i65tqBGHj/H5G0+8BzeHgjsCoErCCs6ri92ZEQOKWkS0p680jzeZojEfixpLNI+pMBMQJGoD8CVhD6Y+gRjMAGgcsGN8L9DMlkCBDfccXJZvfERmBBCFhBWNBheiuTIPAvks4qiYj6f51kBeuY9FSB++CFklLvrV9JOoWk/10HNN6lERgGgdQPbZhZPaoRmD8CJ5R0L0kHzH8r1e8A3ggUhJ9Luqekx0oi8LNJaP9KSbeR9I/qd+cFGoFKEbCCUOnBeFnVInAcSS+VdHVJJ+i4yl9IOrOkwyWdrOMYa+r2VEn3lrQhmNrEdxDr0SRYD54giSBRixEwAh0QsILQATR3WSUCd5W0l6QLdtw9Zu9XS3qZpE+HMY4p6e8dx1tTtxtLet22DZ9E0oskXTcBxB0lvcDuhjU9Lt5rKQSsIJRC0uMsFYFbSXpk4DHousczSPpbiLLfPga8CA/oOvBK+h1ji/Vg65aPLeldCdKpP4Q0U2JELEbACLRAwApCC7DcdDUIXC/k1N9dEh+ntvJXSe+V9DFJj0905gb8WknHajvJStrfJOAT2+47g8sn1uY/JX1oJZh5m0agCAJWEIrA6EEWgsDpJL1d0rklkZ3QRa4dYgtg90NRyJHfSDpRTsOVtSEo8dQZgYbEhbxe0h4RfKj8eDFJh60MQ2/XCHRGwApCZ+jccSEInCukKb68R9Dh1yV9L+MW2wQZ1oNcZWIhsCe3QZAhcR/PSbY8qgEWghSb4kUkHdxiTDc1AqtFwArCao9+9RsnyO2Nks4m6bQd0UCpIADu25J+2HEMumG1iN1+eww9266/l3QaSb9rsQMsCa+RhBWnSX4pCXfDl1uM66ZGYJUIWEFY5bGvdtOY8c8piQ/7bh1RoCAQFoNLdOy/vZtLP+8MJFaVLhkeJ5b0GUlnT5zPeSR9tdAZehgjsEgErCAs8li9qW0IwHD4mFDxDzrkLvJ9SfsEa8HHuwywQx8CIA+VhJvDchQCuBXu3AMQLEJYZS4QGQNLwjUkfbbHPO5qBBaNgBWERR/v6jeH+4A0wlSufBNQsPB9R9JNJX2xMJooLX8pPOYShsNVg8LUxrWw076vEIplpYI/zyTpv5YAnPdgBEojYAWhNKIerwYEUAgor7xnj8XAffANSa/oMUasKwQ+bQLwBlpGdcOijBFHUEKuHMb6t8hgZJAQ//GJEhN6DCOwJASsICzpNNe9l5MHS8HzOsIAjS9m52cGV0LHYbK6Ydn4ZqQlAXpdaZyzFlBhI6w1N5L0psJru6UkCjyleCagvIbt0mIEjEBAwAqCH4W5I0Ce/H0l7d1jI3yUPioJzv8xKgCS0hj7YF1V0g0kYWVYi3xB0qUl/XmADd8hWGti77s/hpiEjwwwv4c0ArNEwArCLI9t9YsmuA9So/dIOkdHNFAE8D2fpWP/rt24zd4u0vlVkm4e/s7+rtJ1ohn14yyoSzGk3CLUwUi98yDIcgXIIU/CY88GgdSPZTYb8UJXgQAfEarz3b7Hh52sgbeGwklfGRk1Cj1xU24SPkzbGRxTCsXIWyg+HUoaStAYDIeUin5KYgcoK/Ak2JJQ/Kg94NwQsIIwtxNb73pfEmIMUlHpMYTIkado0p8mgpHYguNH5j6vpO1KC0oRQXu4HJYo4IF5fywhzoHaFzEhu4SYFs7LYgRWi4AVhNUeffUb59kkC+GKIc2wy4Lh339zKJrETXwqOWmoOkgtgCahouOBkb8fIOmGPVwqU+29aV7Ipq4eKKrHXhsxK0/MmJTz+lxGOzcxAotEwArCIo919pu6WSA2Or2krs/o+SX9QtJPRgo8jIF+cUmfTFSGPG5GgB63WgoYzV2gQgYPskamkutLekNictJcIdbiObIYgdUh0PXluzqgvOHBEeAjCvPdszvOhO+YXHaKJt2q4xhDdMOf/YHIwF+TRAGhXLfH8SR9UBJ4zU2IsYAh8fmVLJzMl5jVhmWCNSWnrSRUcmhexngIWEEYD2vPtDMCcOK/VNIZJGGK7yKY3ym8dLgkiG9qEeIHPizpMpEFQcj08JYLJmcf60os4LHlkIM3x8VDGukhg8/UboLrhWcn1ov4lzuZ+bIdsG49fwSsIMz/DOe4g1NIupCkd/dYPJYCbt/w6dcqD5OE8tIk7+q5fvgS7tWjzPQYuH0r+PEhLKpV7ifpCYnFocQ9tmMBqVr37XUZgSgCVhD8gIyJAJS3T5eE1eB8HScmaOxBkn4wUmpcx2UekXXw+khn0vuoA1BCcGNghelatrrEGnYagwBTSmFT6Kp2yYlJOCgQcsG6aTECi0fACsLij7iKDRIN/o6QOtZlQX8IpXmJLeBGWrvgAvh0pKQ0ZYwhS6LsdEmhQBG33Fi2RMn5to8FQySBfWQoUFNhboI15smJRd9d0jPmtjGv1wh0QcAKQhfU3CcHAZ4tKG4xg3M76yqk9v1PCBbrOsbY/SghfNHIpOTix6wLfdeL9eI+gbq471g5/VF49g0xER+bOX/AjTOKRT0+EHblYOM2RmC2CFhBmO3RVbvw3ULQ3a07rpBId4INuaWlbnMdpxi025lDieimSX4m6VSDrmDXwSl3jYJGGmUpFwSplgSD4uaBwvjHI+5njKnuEZ49KL2bhDa4yyxGYLEIWEFY7NGOvjFqIhDstVePmbE4kO43VInlHkvL6orP/S0RtkQ4GS4/kZvk30MJ7M1GcHFcKmNX+NtfGbIxNs1JJ8WNsFQ5dgguvX9ig4+R9JClguB9GQErCH4G+iAAdTEV+Kht0KXYDh+f3wV6YcaZu2D1uGtkExRfutrcN7mi9b9aEi6H2HsSVsYnrQgTb3VFCFhBWNFhF9zqcSTtJ4nUtdN0HBeyHG6hsNmRsjh3gc/goZFNkEt/27lvcmXrh5uDVNRzJvbNb4EYDIsRWBQCa1cQNj5GKui9ThIUsCl5mySCzCj6g3ALXkPaE88K/34lCctBFwEnGA+3VyzsMlZNfUi7xNzcJJADQdmLtcQyPwR45knRjQmuhtgzML9de8WrR2BtCgIKAeWCEZjooH3tK0Rtc8vg4/ecEHHfd8ya+vMxh5L2cj0IeWD8e2+gQn57TZsrsBbw4fyvFBnrLj0opAss0UP0RODc4flNWcuwID2651zubgSqQWAtCgL+8U1hmK6335xD44bIDZlgtYNzOlTehmA0SI36lFgmYv+3GYWIKoeicXlUjIw9U3tIeudcN+d1/xOBE4TnOPXOtLvBD81iEEg97HPe6NkkwTBHABE+87HlOyFV6lBJHxl78o7z8TxcORDtxCiCY8P/UdKrQtXBB3dcx1y6QUxEMZ8mgS0RywLPgmX+CJwrWBJS6aJY3HLKSc8fEe9g0QgsVUH4lKSzSILzf2rBqrDxQU+9ltj8pHRhCufGT8XALgI5D0GHP1xBXAY4weoYs66QWvjTLkC6T7UIcKY5vA9Ogaz2CL2wXASWpCCg1ZPX/drczY/cDjM7PsqayFWI0r6EJNK5ugrmc9w3XYmRus47db/vJmop3E3SM6depOcfBAEuHx+S9B+J0U3LPAj8HnQsBJaiIEBs8lVJsNjVvicC9vhwvGCsQ95hnkuG6nUEXZ2x4zp4QWJKBfe/dBxjrt32T5RoRmmCIhrSJ8syEUgxZrJr4pHIboDN0mIEZodA7R/TFKAoBmQO3CbVsMK/E7z2xUxzZYnlE6hJ8OQbI0x/qXm+LOlHocYC/12jUIUSl1GTkM0So+hdI2ZL3fOpJVF343SRDVJH5GaSIMmyGIFZITBnBYG1f1TSZWaF+K6L5fZNfjwvkaEEDv6nhZiM3XtMQrDdV+xTP+KDECvEBPMenBqWdSAAxXiKdpqYBd5TuKUsRmA2CMxVQYCu9tmS8KEvQc4kiYj3knIRSQ+TdJ2Og0IOwwsN5eKlHcdYUrdjhZLVZHk0yYGSHrCkTXsvWQgQqPpNSQQwNgnK9VVGtBhmLdyNjEAMgTkqCPj0HrWwY4VqmBsG0f995U4htQ4feFeBKZJKfZ/pOsAC+10opDTGOA9IrT1sgXv3ltIInDe4nmLvVLKrKNa1YWFNj+oWRmBCBOamIODLo7LcUgWfJhX/2grR1NxsuwY+/l3Sf4eYiOu2nXwF7cmQiSlvuIgI+PzzCrDwFuMI/ELSySJNcEdcTNLvDaQRqB2BOSkIKb772rHOWR+WBAIJc4l1LhjoorEWnDRngh3aYI3B/PkO1wpoRBBGyVhpZLPndXz4Ftjt/IFS/PiRvX0gQc29QFi8pTkiMBcFYemWg+3PDmZseBN2EoIO+behju7y3HF7+WviptNl3CX2uYWkl0c2RgBaiqN/ibh4T3EE/pAgHMMidVZbnfwY1YzAHBSEk0g6XBL/XYvw8iCgaWt0NMx9MBVeukfmBtwFpFu9NSPyei1Yx/ZJ8NlvIg1wKaCsWYzAdgT4nVKYLPbeel/4nRs9I1AlAnNQEL4h6exVojf8ojb59BCu9BHn5ndDDwWNNLYmubekp3Qb2r1WgADuwvcn9ok174QrwMJbnCECtSsI5JP3icaf4ZEUWzJpis8NmQhvLjbqegai4NRNI9ulGA9MkhYjEEOArKt9JZEm2ySUQr+GpH8YSiNQEwI1KwgUDMKPZ2mPAHUR3hKJY2g/4vp6YLWJ/T7+xS/09T0UHXaMYsBv8eqJvmTCdA007rAsdzECaQRqVRCIBP6YTW/pA9zSAspp3DFPbtXLjbcjAJXyxyPPHpYZaLI/beiMQAsEXiMJfpHYOxd3xLVdw6MFqm46KAK1KgiYbmGls6QR4HZyX9O4poHKbJFKp6XY1oUzx3IzI7BBgGDWd0u6XAISUp27FlAz2kagKAI1KgjHsQadPOM3hMwOfJt2wyThym7ADS9WLhyrVuoFnz2ZG64SAbKIyFCKyYcDRXpTqvMqgfOmx0egRgWBGxoEQJajIwB3AYQ9VIHsm9lgfHdF4FqSCOZsqsQI9TQvdtw4FiPQFQFiq6ioetXEABRyO0/XSdzPCJRAoDYFgSp5+HZdLnfn063tvEo8gzWMQSnsl0iCFKlJDpJ0vxoW6zUsAgGsUalKtNRuILvh14vYsTcxOwRq++A8UtJDZ4fieAt+V3hhjDfjOmaC+vY/I1uFoMrBn+t4FsbaJa7UV2dUW+XCdMmxFuV5jMBWBGpSEFKsdT65I+mRKQ1NYSVLGQTOnKh9QfoZFfgOLTOdRzECuyCQ41L9iKRrusCTn5yxEahJQXiMJCLILXEE9pe0j0EqgsApJH1S0m6R0TADU6zJYgSGQAA+DSwJN4gMTrXVF0qilLvFCIyGQE0KAnTAljQCMPzdyiQ9aaAyWjxa0oMj7d4k6foZ47iJEeiLQA6l/G1D4TAzLvZF2/2zEKhFQeAlTOqeJQ8BSsn+Ma+pWzUgsJek50XQwbIAIZIDxPwIjYUAKbak2jbJ78LlAO4TixEYHIFaFIRnSrrL4LtdzgSndRxCr8O8gKSDE9kyUORi2rUYgTER+KaksyUmPIuJ0cY8kvXOVYOCgA/uxYkUs/WeUPPOazi7uZ7LiyRhrm0SsmkePtfNed2zRyBlSYAcjdoOpEpajMBgCNTwkYFW9PDBdrjcgWs4uzmiC91tjKTGVRrneKrLWjO/bYiSzhnZlku4L+vMq9xNDR8ZKwjdHo3LhqJC3XqvsxfZChTEOUNk+1eSBC+CxQhMiQBkccQakN7YJLjAruD3wJTHtOy5rSDM93yfKule813+JCuH2/6EkZlPJelnk6xsnEn5vT8kFPdqM+NzE9kebcZy23wETibpQ5LOG+nyJ0m0478WI1AUgRoUhLdKggff0g6Bp0m6Z7suq26dKpLz2IV9BKkeSDoswrPyr4VOH7Kue4SxUBwswyJwVklvk3T2xDTm6xj2HFY5eg0KgvkPuj16VhDycSOgC06DYzd0IejrPyTBmrgE+bYk6ksMXTb4OwGsGNHUEvCceg+4E7lInSSykN9IOoekn0y9WM+/HASsIMz3LF8qaU+n4iUPkHRFbr1NAukMmTRzFui3LyzpFQUtBW3xOCD4wqEF/kvbzm6fRAAWRdyKKUvQxSV9NjmaGxiBDASsIGSAVGkTyg9fSNIvKl1fLctKubBgU5xzgTBcJ+TND20tyDnPP0sij/9ykoj3sJRF4LqSXh+sQ00j/0rSJSQdVnZqj7ZGBKwgzPvUMYv/cN5bGHT1D5PEzbZJPhyiwAddxECDU30S3/TxBhq/77Cki6KcfbTvQO6/CwIPkPS4DEwuKOlLGe3cxAg0ImAFYd4PhxWE+Pn9UtJJI01OJ+lHM3sEThBoya8sqYbfbwy+v0l6vCQUNUs5BG4qiZosMcGyeEVJXy43rUdaGwI1vGAcpNj9qbOCsDN2pwwmVkqI7yTUsaD+B+b5uQgBlueSRHnguQm/8dPb2lX02PaWdGDGiAQu4vaxGIHWCFhBaA1ZVR14QWBytOyKABUaiS1oks9LuujMQHu7pGvMwGrQBCs+cXC/+cxwr3m5t5T0ssQCsSSQxQP2FiPQCgErCK3gqrYx6XlEsSMEiv242pUOvzAi+r8bmYY0sFMPv4xiM2A5eGNQDooNOuFAr5R0G2ffFDsBuFCenFAccfXAHrrm90IxwNc0kBWE5Z02L4FNOdhPSSIdci3Ch/+/I5slsv4qkj4zE0BIaeODeoOZrDd3mezpFrmN3S6JQKp0OQOQ9QRts2MSknC6wQYBKwjreRYOlQThCkKeOpaGJQnP8kGS7h3ZFFH/157Jpk8s6X0zdIXkwkuGA4qPS2rnIhZvB0/CMxMlzHEzwLhonooymC9+FCsIiz/iHTcIkcqmINELJG0Y8eaMBqlfsXgMaIF5ic5FyHdfmuVgO/b4z3E3OFC5zFN590CrHRvtHZJuLQm+BIsRiCJQg4Lw/UBz66OaBoH/3TLtXSTNlV8/9pHhbxebUaDW5yRdZJrHYfRZqa5JyqalDAI5gYtLqztSBjmPcjQEalAQMHl9zGdTFQLQD79G0iHBBPykim95/ybp3UEBaAKRG1Mq2ruWA3j5Cv3zz5d0h1oOYAHruE9wt8W2sp+k/SVtvSAsYOveQkkEalAQoIg9vOSmVjLWByXBlsYHckjh9r0xR/IyOackCIhqESwDsaDD71VCQ5yDFxwHnOkahbLGsENayiBwE0mvTgz1iATTaJmVeJTZImAFYbZHd0S1vo32T7GhZ4WtUBueaGWKFA0ppAsSFEiKJcRDRKaPLVcKgXxN834j1AX4+dgL6zAfaaoEJQ6t8HVY2ihdUDrJ18e9YimDwAMl4U6ICWmSVIa1GIGjIVCDggCX/Jvth2z9dDadHXnzpw3RzETsw4k/tBCJ/l9hkq9Jus7QE0qC7wArSqxI0XklfWWEtZSY4meSTlFioBmPMTeOitqh5h1xO0kEIseEeiVYEyxGYBcEalAQWBDpOQTIWfIQ4MMIz3obucAWTnzcBND2Di1vCiWImYcPdUnK19TtaE4pjS8O0fxDn8ccxn+GJKLxLWUQgEsDVtH7JYa76xYrZJmZPcrsEbCCMM8jPHnPOIDTSKJQEa6JF4VywUMjQdXJDYkRgXh9zJpPl3S3yIJfIgnymDnk2N9WEkF6uIwsR+boQ6L0BoNRDIHjhuJOKcve3EufFwPMAx2JQC0KAmtxLnTeU/mHYIr+U17zVq34cMNGSPwCFocTturdvjEUsA+VdHCIp6D8ckpQjkiNO3+k4VyyFvj9PU/SnqlNr+zvUAcTiW8phwCxSVjVLpkYEkvus8tN65HmjIAVhPmd3nMkYQ4cMj0JBYE8fKoh8mJBcRj6WWE/BOkhpFlys94puBA2uE3diZ1O72ozqtJIvMjSGC1L/aKGft5KrXNO45xF0iclUe00JuZJmNOpDrjWmn6EfIx+M+BelzA0VhZM65uMhbH3hLKw+YifJAQKDr2Gbwd3AXUU8E/HbkDUnYCZby5iq1nzSXHe0E1byiIApl8NgcyxkW1JKIv7LEerSUE4jiRMzBefJZLjLBr/LP7EGj4sxDBcOlgWYMK7/TgQNM7y+0CW9PWJ15E7fQ7jXe5YS2yH+4lcfgJdLWURwD33pYwhHyPpIRnt3GShCNSkIADxvpL2WSjWJba190hpi33WCjcBQXcIOf1YhsaQ3UJQIpwMtfMeEJBI5s4dxwBmxnM8XNIjZ7z+mpd+jBDojCUwJmSUYLmzrBCB2hSEc4R0OEd0H/1hhG3yzDN7Ri+1JZjwYZLInhhawAnqZeRdITBr6Dnbjg/fAbwHljgCMEtedOB4mzWfwYUkfTxYJWM4mCdhpU9JbQoCx4BJ8borPY+mbeNSQJPn1rkEIdDypsE9AVHW0Aohrhl4Iyh5jeDfnlLOKulbUy5gRnOTx4+7wTIcAmRE4eKNvX9gXCS92LIiBGpUEIB/TdXsch43GObOIOmvOY1n1IZsiRuHvfG/cTENLShbTwgfHV6MKCtjuyRqiCEZGudS45s4qRSSzeNgSSB1OEbzDafIg2bg4hwerRXNUKuCgK/9wBWdQ2qrc0rdS+0l9veNJQECJ4osnarPYJl9SalEIHIiDWzzf2d279TMCkI72Gp9T7XbRd2t+e2liMX4O9TNpD1bVoBAzT+8LwaynhUcQ3KLmMSpdAeh0FqE6OlHTbRZ8MbvikAPDcFMKXmuSxu3hvJskg5r3csd2iJAdsN7Eoo5bKg3lPSptoO7/fwQqFlBgMVval9xTScKg+IJalrQgGvB3fBrScQnNAlWJlwFQwtunc1z+KTAa99nTgrnTJ0S2mf9U/Q1cc94qJPVQIXWmJApRFlyx9GMdy6TzFSzggAgu0t66wiUv5OA32E1RJC/AAAgAElEQVRS2AapYcDHMWUO7DB8FV1Qgn4XWQn7JuDwo6ENzzCsi3AyIHAynH6EnVAwixLXuAu4TeXwLxBw92pJ1xthfUuaAkXw/kvaUOV7oZAbhGixrKOPhaqtKWWi8q16eTEEalcQyNV9p6Sr+hh3QQBzK2bXJQq57/tHNsaLieehqRYFL7WNpYXiMzcYASRSFrF4YG3AFdQU9EiMA5kUkF1Z8hE4KKMaYf5obpmDAERoP0g0pMT72RcYPJ2Dzyra1K4gbA6BG9olVnEi+ZtEcSKqeJO6l9+z3pY3kvTayPI+25FpE1cFysJ/hAqW1x4BAiwL0NWiLKDMkG+O8vKNEeZe2hTEgVzMLsfRjxWF9iMJWmYsaVSJhMnUsjAE5qIgkH7Dg3reheG/03YIjiOinvS7lPw4VF6L3bhTY9T091Q+NnUYPt1zwURrU4gKoTIkboKh2R6xLKAYoDTEqlD23Nqiu1NgaOx01EUDmrm580k6JNGWv1P91bIwBOaiIGxgh1mN4JilyptD6d9fBQY5csBhkkvJXpIIfpurcMN/gyTSOZvkEVsyC4bYJ88Vvm5+EwTIbpSIIebymO0RsILQHrNSPbiYfShUdm0aEwvZHrbylIK8jnHmpiBgSSANJ+ejWQfC+at4SQjE2npL4kP1RknUN0gJFgdSA1Eu5iZYBihD2ySYL8FiLKHi3aZqJPEO9x5rYs/TiIAVhOkeDmLBbiGJaqkxwboXq7Y63Q48cycE5qYgbDZJuVKK8xAVvgR5YognaMpMIM6A/cboUMEBU/Z5ZpYzfiZJ340c4i+Cawk2yamF6nZXD4sgiIvy15ZxELCCMA7OsVmIedov8d6Fq+UKiUyk6XfiFWQhMFcFAZM0L+rXZ+2y7kY5dddRhNgvLoiU/DK0ha66djm1pPcGpaZprZT8jQUuTrVHXBDUVOA3dIeQkjvVWtYw779L+ukaNlrxHmE4Jc36zok1fjgoCRVvxUvLQWCuCsJmb7w0yD9PlSzNwWLsNjCSUXypDVsgigIpdZjAU0JGANUMIViqVa4fYg+a1kea1RicBqXwOX4IpqVaI0LWAi9VS38ECMg9dwaJT/+ZPEIKAS4fFw7KcVNb3su4gmt+/6T2ufq/z11B4ACJCodQ6ckzOk2oe2/eMTWImyuWE4o3xYSIeVKQcuIXpoAOvz7MhE1CyWbSEedcye+WIUOCLIl7jFTueoqzHGvOL4VYFUiyXjPWpJ5nRwR4B6U4RigABXGZZaYILEFB2EDPy5hypDm366mOi482fusS7GMwyz0uocWzT1wOp5VEyeNa5Njhpn3xyILwd7K/JcmfJbF3SxkECOCFRZMCW9D/WsZF4HBJZ0xM+SNJZzaZ0rgHU2q2JSkIG0weJukBI0e9554HH+lUoGHuWLSjRvtTMjpANPWmiipkQjdMbEGTPLRAzYMMWEZvAsUyHzVLWQRg9KPCIIGspAZbxkOA5zlFHU7mWSyFebzVeqZWCCxRQQAA/L53ChaFVoCM0BhK3ljd9bZLIP3oZRmWBMZ9pCSojKcU0gZxHzQJ/k1Y85Yo0NKaSXHYkyUT6PuhdPewM3l0ECAFkmeagN2YkH7trJ+ZPTNLVRC2HgPkN2QAUICkBqHg0t0lPavgYqAQJgaDoL+UYGEhXY91jC2cwQckEVy6k2AmvkZwP4y9tjHms4IwBspHzYHFDmsUSkOOpW3c1S1rNjKsoFyOyVtC3AIuIcsMEFiDgsAxECSGaR8yoqFMXXAQXEbS98K5x1KyiOzFilAyAI8MB9jOLpXx3MEjQUXEsdPGyEqAP6BJ4H6PcSJkbK3qJlYQpjkeYn8gIENRIB7HUh4BYms+EbIbmkbnHAhcvEr56T3iEAisRUHYjh3mMILgEExkKA1Nt9rtffmoUgoVhQDBv/a6wLO/tS1mcrIISH3bSbjBo7iUTgN6Rah2mGPOo/IgSsUYcrNQ96BpLmptkI2yZLGC0O10cRnwnN6mW/ej9eK3B3cF8sJCY3qYIxF4R7ACxvCAGA7W18071NhVisBaFYStxwEG3GohX8oRCgpRTClloudGj/IQ++gRD0BcQEmhGBEuByKMU/K7QI2KRWFI4cX+/AgnwHfCzeM3Qy6igrF5xkgP27AxVrCkWSzhqYHumhLnPNso6KWESpHIOUoNuPJxeMbhX7lcBAdcP/dzQGn9T4oVhOHPiCIml45MQy7xEJHtkPRQ3yDFl8DSXhVewJAwDSGpSGeyMWBoW4NQVOv2a9howT0SR0Ra71bB+vZiSceSdM2Cc23ieOAqaaI+LzjdYoci1ggLZUyIWXh7xmVrsSDVvjErCMOfEMRGMdpjAvOa3BB9V0f+MaWgyXRICcxnQwRyQmpz2cjkpKQemFrcgv5uBaH9YZ4zkv2BxQzGPix2uKlKCb9ZgulI4auhDkipfY01DpYELgZkLTUJmQ3EQkGAZakQASsI4xwKpYopctIkpP1hSRiK7OVumSmf3wqZEKVcDmRrYB5ues54CWOKhEBoLUK8CyZYSz4Cbd5TKAzcXulD0DAxRiWEmIXDJB0iiVRlSx4Cn8lIW76QpC/mDedWYyLQ5oc35rqWOFfqJn3jEOw41N5JHySAKCUEYWJe3QRxpdo3/Z2o5q+EKpRNbSgNS4nYtQnR3JY8BMhqIbulrfBuI1oehYEyxTlBuzlzoNRSYfSxkvhNW+IIYB0l7iaWPYZrE0sC7wtLRQhYQRjvMKhcSNnm2IuK0sewwg0llw98CRfImOAASVg+ugi3tliuMwGeWA5Ii1qjYKEZwp2zRCyJMSgVC/CGoLCicJRy6xFkTBYTboihYnjmfq4U0/uCJN5vMSG77Ntz3+yS1m8FYdzT5ANNKdQm4bZEcaWcDISuK4dl8jmZgXIvCkoCWRttZC9Jz4t04BZGJD91ItYoVHv0xyR98lQ8pZpnaWIdCgidUtJ9Enn76RUe1QLXAzdg3EekGlt2RQD+CSyYFNdrErgqsDSgTFgqQMAKwviHkCILIoqauglDC7d3uBpS5YhJSSJ/f0MAlVoXJXljpkJTrh6ZUksKLD5ySzMCsH62KYfeFUuyJHDxcdM9YddBtvUjQI9UPnhOcEnYrSRdQdJbJZ0ggTHWVgeGFnoQ+wxjBaEPet36YjLlRxLzyd03UQq528xH77VnyHIgJTIlRHNDp5oSsiFiOeX4GiGQWruQubH32kGI7J/AVdxQsQyg0vCRjnzBEHlfKnUSxfqdwXROKm9J9tTS+x9jPN57xCTEXDxUu8XCSIBjaSEjBtK2pno4KHRYeWP1YkqvqdrxrCBMczTXlYQ/tCnCmmhpcojbmva77obsieNmdObjDq/DTgxo7OWViSqNzw1FtDKmWkUT3yqbj5lg2Vx206EeFhRoapxgZStVhZVMIW7SkILxu1vjMwCuuDkJII0JloauTLNY6TbvV6y2WIe6CqmacMogv+86yBz7WUGY7tQoIhNjUaQkMpruGELwEFaN82RMxg/l2jvEDxD4eHBE6RmS7yFj2VU22UfSvlWubPpFYdX68fTLOGIFBJTi+iO4EVbQEu9NPjTE6ZAyiWWBW/OahBToFDkaygGZKJuPcw4+sNNipSW1+6Q5HVq0IViWQndI1wDuFtNN37TEgz79Lua7AvyrcJI3CQFPpCeOIdySbimJwMSUYCaFmGarYFXgh9kkBJuhyVuOQoD4ju04Gp8jPxywa9Ym3Ej5naAMf6zg2fF7wpJw4ZWl+sEoCnFYTAhQTcVJ0R82WJS4sX5PvO+I40qxRdb2DLdajxWEVnAVb0xWA/7JpjoQBOpg1v9a8ZmbB7x1qHqZmpJUPRQcAipRZGI1J+5auLx1am21/53aHy9bQXGqLudAfRCUYlxZtQt+bJhACWzkY5fjpsvZ0zNCVVPckLnBwTnj1tgG/B6XoSTwrtyeFn2rQGN/x0JWna744FqFxRMX6qLECsL0x5lKecNX2cd/1mWH0ENDYJTyEXLzwUTK+mLWA7T6tQdnbc6BiHk+Jk1BUl3Oa0l94AFJ5cvXtl8sC/Cb8F+CKikoVUJwO3BT5QOIC3CpguUShTkmBA3i2ty8R7g8gXmOdWEM3OB2IU1z6riZonu1glAUzs6Dpfj5KY86dsQ7t1w0+5t33tWR9KmkUpYiuumxlCq6PljSo6tYSZ2LqCEwsRQyxBcRR0E2BJeAEvKScFPld7W0+gU5vw1u6lhU4K8oFTRa4ly2j4Hlh+JiQ/LZDLHuo41pBWEUmJOTnDgE+DVRyvKBJfIXytgxhRvRMztmHuBT5UefMh+OuZ+p5uJDQWwHAVeWZgTuHKLbl4QR1VRxPRC1HyuB3GbP8Crwj1v3khROgrJRApYgkHzx7hyDx2MwvKwgDAZt64HxY/420ouI3hTBSOtJMzsQZ4AlIIcvYTPkaxMpj5lTz74ZZEgEtOUIDHIUrlmj1BqYWPosIE+iuun5CrpSyNsnHZOsj8+WXvDI46Wyu0ZeTu/pKEn+9HAB7D3Y2ANYQRgb8fh8qYAdisMQrDOFnC0Ql+TGQ/jZOvJDQL37E2UcGOlTT1opBTN+ZQJ11+SKIs4Cf/VtQ4xBxiOSbAJL6TdDHMS9kq3rbbAkSwIoY+25hKTv1Av5zivzS7y+E+O2DpFSkxwU4hGmIljhBYSykJLXhAjv76caLvDv8PxTwCfHpAw+5NlvCGFIm3rLhNaisY+DIFdcL2MyJo69x5z5+M3jW+fZiTGR5oy1aQPlOXwAcC7Mrb4BLjmUpyUJNUDIxPjTXDZlBaG+k+JmQdGmJiGQ64ySoKKdQvjw3TBzYpSJ864wg4EgspyKmeR4U7sCnLZKG7dE5lFU24yb1RCUutVuOLEw3HjQPfP8xIjU2uwP1yVuLlwQfcu4t5m3a1uyQCBHIlB6SYJiQFp77vtz8r1bQZj8CHZcAH5o8mpjMQeYJ1EWxhR4zLtwMqDQcFOeyuoxFkZU4kSBSrlhMKU/XhL+1ia5pKT3LtiSQPoutQ/g07A0I4CiQHAygY67FQKKFEGsNjyHKKek6NUiBHUOWfK+hn3iKt5jDrTNVhBqeFyOvgayB96WYFHE1UDA01jCA036zrE7TPgjSe9foMlwKxSkqt4uk7DlRqFgTQpKFI73pRrN9O+4X3KDN2e6xaLLhjeD3+CpJMGlUUKwQlKADXKqB0kihmFKOWso5LY0y8F2TFHICF4kM61qsYJQ9fEcUfKUF0KTkFkwlu8WLgaqTPYRqrjBq7Ak0iSsBfC/52CDogSFMKWAc4Vod0irSrH05c47VDs+RtT8WGNsSklMoS7Hnw2ZGdbEEu9y6qVARvSNQPqzU1G2knvYOlaKMG6oeaccF8ZQWGirlRIPVbWbW8DCMLd9ShL10ZsE7oRYzEIJGJ6S4MZ/VmBUhPcgJa8Ilo+x3SOpdXX5+w0kUXCJOIuUUJiHILQu1ekofQufRM48qXVM+XdywvHBtim+M+V65zA3ZZOhRydN+mHhv33XTWwMlgUUWixjX+47YKI/cVdYypp4YAaefrLhYcpESeACUKVYQajyWHZZFB+WvSLLJFuAW/lQfkRuFLwsmp4V2MIwhaOkvDBUu2sqY73ZBjcTSqiSvz1X4WX27YzF87LF51iiqMtTJd0jY87amuDrhtAHZcoyLAIoDNSxINMItsHUbzFnNcQOUX0RszjWv9IWwJtIonrtWoVzonBbdWIFoboj2XFBkMjwA22SoeIReHDR7ImqbxJSkaCA3QhseERK5xD+0O758ziCf64S/nfOIqdM87dCJHqKZ74NBHxkqVqH62EOQqAlFiaUTMt4CFCjgGJGuCK4QOSkJues7gPBtYEV6D05HRJtcso+F5im6iEOlkT9m+rECkJ1R7LjgnAxUCq5qXgSGn6Jm8L2yUmPwnTZJNyKP7TDH3k55dwysHrwguADMhdpU6J5qCJVFMYiwGyIMy95DqQwfl4SVhTLdAjwvPDuwBpJYaQSwpliGcKqwKWgi5w/XEBK1arosoYa+vD+JuAcorSqxApCVccRXQxEKpAoNcnXQ+rSDwttCRcAFdSahNsxxB9NwWZ8HMlcgE0wJQRF4c/vkkKZGrvU3y8aXoaQGqWE2vT84Mk7H1JQ0CgGRGxDLUL6Igof7qbDalmU17ELAtcJjKwEOZNqWkIODfVGeP+Q6psjxCP1KQaXM8dc2lRZxdQKwlwenyPXSe48VcKa5ABJjyiwJcySKBzQ3zYJaVew4MUEfyjuiZiisek/RVnrXKgotXuFTE4CSG7I7c+xoOTOn2pHFDsR7WdONRz47zx/uMMoe2upHwF+n1gICXIsVVSN+CLSJXl/XDHBfbJ0XpS2TwBBoVWleFpBaHuE07bHdE9aY4ylj1xpIsX7CB/Ea0UG2L9lwBmkLPigU6l6pMBhrqypohtFcHJ47WFJu6Okl/cBvmffswdrAsRUWICGFtwcPGs8k+Tmr6mWwtDYTjE+FoW7hqypUpVHURawpqEw87tGKcC6SNlmFFvLUQjgcsVSWQ0tthWE+T2eULFS9KOpHjofWczORM53EQIeYyZryJIwC7bNkYYEBRcCSk5MeJHgcpg6CO/CwVTODzYlpIJxA6vFpI7lhxRZFIaYWyq1r6a/Y0a+saRfBta7ts9C13ndbxwEsCxgRcSdRlXWErEufPxwS6Ig8DvhItMUUzXOLuuchWyfGMPqqKu2gjAq3MUmQxOn4lmTdH3IyDyAF7/pI86Pm8qEFH/pIgQjPVbS7TM682IiCnuKj08q/mLr8iF/ghmxZuE8ucVdKiwSNkyipsnIiAkmTyKsN0JKbU3WnZoxX9LaKCBFXAkWQCwL/rAPe7onlkSA+ORiBWHyI+i8gNRNn7zimBKx08SHJG7upZi/iKMgniIl1LaHXAeXx1iCP5bUSyK/Y4J5nfLc+NznJuyNioGpMtTEEnDrsxgBEEAxwKLGf2EAjGU4GbHuCOwtCebaycUKwuRH0HkBBKTxAW26BcLSBQNfTqU8PhjwHVw+sho+1DC1lZKnS7qeJFwmKcmtXZAaJ/Z3TPIQzOQECVHgplRJ3j5rdl8jMDUC0IafPPCe4JqwlEGgim9zFYsog+cqR0kV88EikFN2mOAkFITYjRKFBNbEkkKpY9LhmD8l3NYPTDXq+HdMp2BFnERKwIBCQ6XSSVPz+e9GYA4I8Jvg/YELkd+1pR8CBDzDWzGpWEGYFP4ik98m5B83nSUBQTEWNWqvxwrnYInghjAUlTMgYMbO+TgTIIn5rVQ5WCwn5ITn5G1TQ4EUUlw7FiNgBOIIPFcSJct5v+BTt7RDgJgPMkomFSsIk8JfZHJM42QsEHW8k8D8BzVvU+oj9RBirgVuBDlFmPpshhcI8+QwshE4R6BUCVIlFA6wyRECF6ENthgBI5CPAERppN0+M5NHJH/kZbeEyhoX8aTBilYQlvOQkd54gsh2CCjann1wJ0nPjvQZ29dOPAJzxvaxWS451L/oSON70mB1oRBVSnApwGI5dEW71Dr8dyMwZwRIve1SyXTOe+67dqpclrKWdlqLFYROsFXZCZ/VcyIrg2lva9ElUpdiJZeJ0k8RGw0BBDeOHA4HmBdxDVDwqY1gtrtvZmlZAjMhhZoi1bLNntzWCNSOgBWE9idkBaE9Zu4RQQBK4xiDHqmFDwppSsQmYPrbSeA7QOGYqtIieftflHSejNOGNIqMghwWP0x2OSyTFKJh7zkuj4wluokRWD0CsJHCSmrJR4BaNtS7mUxsQZgM+kEmhvEMV0NTDQU+olgOoMWNkRXBDLjXICvMH5S9PFASpE8peVuwJDRZRMjAoCz1w1MDScL3R7aEyxNngOUmRiATAdddyARqW7NJv9GTTt4NL/dKIJAy0eM6gAs9Rp/KDb6WEr33ziyDSi0E2hI9vV3alGgmsyHHGuEH0QgYgXwErCDkY7W15aTf6Ekn74aXe2UggBvhMRnttjf5maSrBfN+h+6DdSFuALKk3TNmQEl4Smh3cUlvD2masa4oBC8NVogh0zkzlu8mRmCRCFhB6HasBFSTaj6JWEGYBPbBJ+UW3CWwjpRHyhrXKLC0wQqZQ8LyqcCISEnqnIyIU4cSxbVYTWrE32syAl0RuKWkl3XtvPJ+FG7KcbMOApMVhEFgrWJQ0gA/Jmm3zNXApFiqxGvmlJ2avUcSDJIlKsz9tyRqL3yg00rcyQgYgRwEsOjdM6eh2xwNAQqk3XQqXKwgTIX8OPPiZsDdkBJybfnokhFQu2BJwNWA66CPUFfi5aEufZ9x3NcIGIE4Ak+VdA+D1AkBKwidYHOnXAQ+mOE2OCDQCOeOWUM76KNxieAeaCvcaIhVsBgBIzA8AlYQumNsBaE7du6ZgQAVCi+daLdnKJqUMVxVTc4ZiiylSjNvFv1jSfeRxI/OYgSMwDgIWEHojrMVhO7YuWcCAQogUQgpJZ8PhBy/TjWs7O8oCPAWnCRzXQeHfU4WFZy5TjczAktCwApC99O0gtAdO/eMIHDa8PFsKuK0vSuBesQhzEW6uhg+K4lKaS+ey0a9TiMwcwSsIHQ/QCsI3bFzzwgCpMc8siVCZ5H03ZZ9xm5O2uL1Am9Bn7nvHxgl+4zhvkbACKQRsIKQxqiphRWE7ti5ZwMCXXnPfynpGpK4ZdcqpGOWsnQcJOl+tW7U6zICC0HACkL3g7SC0B0799wBgQsE/oMcgqCdAKSY0R4VInuyUOXxXBlrIxgRyclwoCDKrST9JGNcNzECRqA9AtQ22bt9N/cIAdXmQfCjUAwBNM4bR0aDF+FCiTb7hDLHxRbVcyDWQ6bFf2SMs5VqmXRGqlIeJ9GPWg3XlvTejPHdxAgYgXYIUJX10HZd3DoggHL1gKnQMFHSVMgPMy+8AJePDP0oSRAEce7flkSVw50E3vQ7SKKq45TCOnGXPCljEdRTQPl54ra2FJ76o6ScVMgTSvqDJPPGZwDuJkagBQL+TbUAa0tT6OInyy6zgtDt0GrshemdGzDZC00ffSwHXwp/xKxOgaImeVeIR5hqr5cIwYg52jPlnp8tCffITgI2xC6cJmMzzwlxCSgKFiNgBMogYAWhG46TfqMnnbwbXu7VgECqpPHxJFESeaukiqj8VBI1HcYWbvt8oHNu/dBDnyOjRPOxJcH3gLkzJZTEPm6qkf9uBIxANgJWELKh2qXhpN/oSSfvhpd77YAAldL42DcJ1cBIe9wumNSpfNhUIZHqhnuNyBlwzBAg+ZaMU/6VpFe25HhnfEpHE1WdEipH3k7S11MN/XcjYASSCEBq9rVkKzfYisCbgxV1MlSsIEwGfbGJ4QQgMLHpts2H9AySft8w4yklYSlokt9Kwg/2v8VW3DzQjyRR/zwVVMgIp5L0i47ruqqkd2fsB8bFV0m6W0ZbNzECRqAZASyYdtu1e0JgwiVWbDKxgjAZ9EUmJgDvb5GRcDvkfGyvEHz03LB3EgIAGQeLwhCCAoLV4LIZg3MLuVGB28gtJN0mUC+npt1fEpkUFiNgBLoh8K+SsMqRhm1JI8A7d7epq81aQUgfVM0tUpUacSvgXkgJ2j18AJeMNByKeZD0RbIP+DGkBMWA4lOlOAsoHf38zHrrrw4uB+ITLEbACLRHYF8r2tmgYbnkAhO7AGYP1rWhFYSuyE3fj3RFyjQ3yXskXa3lMg+RdL5IHxgMqdlQSlA6Hp8xGAFOD5RETvAQQsbGVSQdIzE47prrS/rIEIvwmEZg4QhYQcg/4KdJumd+82FaWkEYBtcxRiVugPiBJiGlb8MomLseOBTgUmgSPpAwGvYVMgr4AcC1kJJvhBLNOTEDqbGa/o5rBXKpl2coCXAqoCSggFmMgBHIQ4CLBVbC3OJxeaMut9WZJP3X1NuzgjD1CbSfnw8/qX1NsQW/k3StHrdcrBJYJ5oEzoGb7JAymbsTfJAflUQGRUrwWcKHMKYcLumMGRMSt/FlSShNFiNgBHZF4OKSULxxg3IhsOQjAFfNBfObD9fSCsJw2A41cqpKIz76y/VgA+SZIHr/xA0bwNzPR56PY1vho0owYo5y8ApJt83gN2i7hlR7KloeHNn/pj9ZHbS7WGpA/90IrAgBrHD8vin6RhC1pT0CcM/EMsvaj9ixhxWEjsBN1O38W5gQd1rC9zJvv6nlny4oAGQXNAl1EX6YGij8ndRFCo48I6M9P4wrSvpqRtshmzw2uDaIvo4JmSJg8fMhF1NgbPaB8rORJ4e4i9yhiarGMsUzhmDF+mtuZ7dbLALQtWMhwCp48sXucryNEQ913Vp+W1YQxjv4vjPx44t9hHAt/GdgC+w7F/2vIwmijib5QgiCzPkwUj76ohmLgnOBTIpaCFX4ob4pY90Ed/LBfXFG27Gb3CB82LnVETtRSsCF83qDJNxOlnUh8JhQLZXfSJO1cV2I9N8t1lkI7yCAq0KsIFRxDMlFEF3/rFCZsKkxDxW5/SWFdEIIiZrkmpLeEfk7Sg3kR6lbOLdTGB1xjdQmZIK8NtMtQsrknQfki8jFBhMlAaDwN4wldwnKFO4pWxbGQn2ceXj/YE1EycRFGMt0GmdFy5yF921OifrRdm8FYTSoe02Uijvg5gotcGnBdIgCgMm/SfggUuBou1BqGd6CnAeeWIOXlF58wfGIuYByOodR8XkJRa7gso42FMW4uIHcZ8hJImOj6PEBwbqUw78x0TI9bSYCJwgKL64pLFGnyOwXa/YVSS8MDVBgmcNyJAInkfSbmsCwglDTaey8lhRbIuyGfMD44Q0h95P0hMjAn5C0+5ZgQp6pp4eaB6n1cNOEKrqpCmOq/9h/x6yOSTUlXwxmfawnYwiKHOefQzY1xno2c5Bpg9IwFAPnmHtZw1z8dqFsR6nHF079hL5CMC9kP58MLtCt42HxpI6Mv0PS3juUqu+Lfe/+PpjeEA46ABo7JZxj9KTc0l8/6CqkFMEJP/JbS7pU4BO4V8Z6sHocJOnQjLY1Ndssw/MAACAASURBVCHWAItHyu86hj+RVDIInsZ0JbQ5CzAgPgG2TOpmWOpEANcBFjJSqG8f6qH0XSkBzFgK/rvBwrgZP0XO1ncdc+hP/BjZUHC+VCVWEKo6jqMthpv5hyJLhEgDQo0xBNM5L5Em2ZRnTsUb0J/bCRHxc7xZ8puBmrqp+NVWfNgfZ0jq6RCSKvE9xJxdxqTMOIyZKJqWehAgvoh0Zcz8lDcv8T2AZXSP8NvOoSVnXsjH1ixQvleJQYkHYs0HO+Te+YC+NTIBP2yYD3895CK2jE0cArdBftBd5bshkA1z2twFCwIvQ1JPU0J5aSwPkDD1FdwJnMOV+w40QX9y5LlVxpTeCZa1milR3u8UFFzSeEsIGUewJPI+Iki3i2AJgykVH/yaBAsbLtwn1bppKwh1ngx59RRPOltkeaXrIuQgcdoW3Ac7jUdWA8yD/DCWILzQoFzOIUv6ZYE8cV7wKBmYgucqWJrOJen7c93ADNdNXAHKOdkIpZ4dLIq4tjhPMlf6CIyLKAi809YkcImQEVKl9YCDsIJQ5+O4n6RHRJZGZcGbTbR0FJdYVsNOy4IH4aojWjvGhoYI79cEatnY3NTGAIcucRekEUKBXeoFPzZG2+fj5vSiAh+XqfdR6/xksyDEB5UQLAT8gxsF7oshBCWB38caBOsj7seqxQpCfceDmY6griZ5dki3Izp4CiEfmij9M2ROfpFw6116zYJzZ2aSwBRJxkGb2xJZJHxQlyQ8v9ygYlayJe13rL0Q9Md7/byFJuR9hIuM5/ZnhcZsGobYHtKqq/9w9sSBM4LzBaKxqsUKQl3HQ3oRxU3O0bAsXqo3D7fVqVaOv+zeGZMToEdmQzWsYBlr7tuEuIAHZH78efHmVLMkI4T4haUKhWnAzVkO7U8YlwGKJqnQ8E+UqH2A6wcF9o2SXtB+SUV6cLuukTStxOY+HdhiS4w1+BhWEAaHuNUE/DC5iTbJZQeMiE8tFH87BZQowpIj+NWIzl2bECfw8ERFzA0mlNaGjRI/7k7yREn3XQGAuFzMzpd/0ATIvjSkI0JNjg+/rxBoSEwBaYnf7jtYz/5YEkjdvnrPcWrrjnIAM2tVZEgxkKwg1PMIcZt8bmQ5bw+pgVOsmJcQxVja3lD2qThHf2gc8f1i7eGWFxNeFtRIwHK0Ve4RTLtDr7OW8SnORWnvnPTRWtY81jrIXCGw8/SBUyBGf567JnLvuZBAYFRrVhExO9CGL0FwK8T4bKrcoxWEOo6FIksE/zSVQSZKmGJH+GzHllsFGuQuz8phwSICk9oaBQUByuGceA2CEIkvQU4WfL4lboZzwZ1nBNIvTOWWIxHA5cit/oyBhIybdV8hLfEhksiqGYqfo+8a6Q9JHB/VHKr2EvMNOQZniDWw+piD7SB0eekPCeQax+YMCOBrygEmJfBEE9ys0NzvGszlfc+Fcs99U6H6rmHK/hBa5SgJRHDjAyZKnBvjGgW66CkU4RqwJh0RZYB/cEacssCicF/9QNLnQkxQgSEHH4KLEi4GWELnLChhuIwJ8JylWEGY/tiIEMac3CS4HSA3GVPgK+B2cfaMSb8ZfOgUCmqSR2X65DOmm2UTXvSwR8YwmuXGBlg0pm/iXGq+3ZbeNhYjiIuILbi2JFwKfYXgT94t1AOBrn0usgm4zI11qnVfFLFDKaNw2WzFCsK0R4fv78DIEviRX3DEJWLSxrSH7y8l0Py+ThIuCIQodF50TQLjIHnUaxYUJSot9mGjXAN+D5L0uAVvlLgUfmdY6fiNlxCCglGusD7lVB0tMWfpMQjwJdYqxhKKKwr2WKyqJRSpknvA2su7k8q6c1LKGjGwglDy8Wg/1sGJWyURrzD1jSWk3uEH5seXkutso4LGLMqtD7bFJlm7qwFcMJuOeaapc6z17/D5z6XKZy6GVLdESURBJOakhLwvsBDCTTJ3CmsI4G6SAOXBgZqYDId7SrpCCRALjMEFiViDpxUYq5ohrCBMcxTcIChkgs9xJ0ETpRYDpCFjCM8BL5ochkQsB+dpSIV6ScLPiV8VboSlUC13PZuNlWZNQYhtsSKgC1KuqQjB2q63qT2/cW7GpbIz4BcBE6wsVENdgvD+IUvqMpHN8M6ASZSg360CLT3uO9yhbbOs+mJHKXMsNyg1sEAuTqwgTHOkdw/+wSb8PxMKMfExHlqItL+epBtmTEQkLqQ9lHJtkmcmbkePLBT4mLHcqptcOKQ3ElFu2RkBPgjcuOcocGEgpUpxY3WCshyrCvn0SxJSgjfU0DvtC+XgOSFWi4/yTnI6SXcM1W1jY5XADVcp2Ta4WLvQppdYwyhjWEEYBeZdJoE8iKyFWFlk0pkokTu0kH//2kyiFRQDSHtSt39+qETtN92O6Z/iBhh63zWND1eEyyDvfCJ/DWRbTR+Fms5xsxYsH7xXKaFcQng+sBRwWVhiujBKDyncMcEVC0dGznPAewcXDm5SeB6wQpUS2B1x5bCOnFLWpeadbBwrCONCjwks9iPnwYMtcegbAmlExBrkUKkSicvtZXMjykGMsVE8moQfLil9sLatXfChYp6MKYxrxohU22dVCgAfISxw/J7IQiih+EIYRSwBLJtDFUWqBc6US5LLBMF+xGL1EbgUoCzfidmVzBF+eyh2O1lsSbeE+nmVYgVh3GPHXBozKfNjIPaAm9OQwoeZ1LuUD5yoaHx8XahBeamT6tMkMEd2rR8/JDZjj40Z/YCxJ53RfDVanCgwRa0Cgm7JRCjxHuW3v1eIVVgDZ8jnJeFmiwkpmtSlKRW/sdNcXNo4v01sx4x+GsMvtcSDPfwqlzHD5cOtoGk3Y/DRE1xIfEOKkQ1LBhkJfSKE0cp5CcSqyhHRT3DkWgUFLcdsulZ8Nvu+dKAEngoHSMxgO0UxIIo+J8sntVbS4bAUwGw41ziL1B6b/k4diU16dFObTwX2yK5zuF8BBKwgFAAxc4gUrzj1DoZ0LRD9e3tJOTzufNS/F/KqM7e3YzOsDxR+aTKfk88MIQovgzUKZmQUR0scAcpd338CkFAIcMPxmzlToSh5ovUhRsM6d/gEe5p6SlyWlICPyXdDmzVYUqY+j+j8VhCGPx78k9RZ4AbSJPcbMGWJjzNVGHOyFPhgw+T2sYKwvEnSdSPj7bfiIL1UwGfBY5j1UN+QdPERuOwJbttdEoG2Ty8UF4I7j5oCKP+lMhrmeJhYy4g5uEVi8QQkphSIOe5/lmu2gjD8sUGvi9bcFMCElowvcwjBFEqO8KUyBoek5PEhSjejeasmKTppTI63aTXi/BunqnfOf4dld0DMzM/LDvnP0WAAJSAQIiMUkRLy1qD0/0zS10sMOPMxsJwQgB0TgpdR0KhhYKkAASsIwx4CATaxlwNuB+ICSHssLVgMXhkhY9o6H+xfsJINJbgssEoQMbyTUMwECwv+2LUIFNu1ltmt8Qwg2CJfvoRwmyW1DsW8FBkZRbawFkAG9owSi1zIGFgwwYTMppiQvcG70FIRAlYQjjwMOL25OeCj3ykAiSh+CICwBOQK5koik2PsYJjb+IiXFljWHpMxKLm8tH1KRtu+TaBGjVHnrs20SG47dRks+Qj0fV/xscJSBrvhNfOnjbakRDe/cz5w3yo05pKGwYKZSlMkmJk2thxUdvJ9f3CVbSe5HOoEQGBCPiwfpD4CnwG33o3Zk2A8UmU2wo0Hn1uT8DLJqZbYZo0EBT5AEkyNKSEQCAvHmOQrKbM6GJ41tfAF/B2qZUzPlnYIcPNvS73Mbwz3XinrFFY/cuYJmnxbu+WvqjWXLpgGSduOCaRqBIBaKkRgLQoCt2Q+PFeSdPqBzoFAQIg2uBVCyhELSCJwDxdA25ddbOmY8SE0ghQkJUTPE4xIJPWYcpZAOtJU0An2SAIaF1EJLQKsFYRuTx28GlDupgRLwYZcCatgCcFMTloipDnfKTHgwsd4TXArxL4xn5REUS6Coy0VIrBkBYHAIz6CL6wMd5QCFAiipEsI5lI+OJCKpITCIigycJZPKSgCBIQ1CX8bow7FVBhYQeiGPL/lPXfoCtkNlLoox5RPLvFe47fyh5Bhg3vRkocAZ4Eb5waJ5rgTTp43pFtNhUCJH9JUa2+al6yBmwYzO3EAtQnKAVH9pYQfI7fuVG10UurgEocAaWohrZPc9iaBpS71gpl6D33mhySGzA1LOwS2Kwi41KBiRjHApVfifUacEbdf/kvkvaUdAvyuCXhuqlTLaOAK/wkKmKViBEr8oGrZHn5GXAiY2WsVXjoXK7Q49guZETnbKSEYsTZlCXMtKU1NArHTQ1Mbm+HfObetsSoz3MJkS0apgo6YDIS3FyrEg+LMeaAUDF0FcDLgRpqYwGjcuTGBOTSmPIy0VE+Tg8BSFATqcWM2j5ER5eAxdBuCmmBR48PeR6iqiO8uZ7+PCP7YX/SZcIC+vCRQXJr4IQiexGy8hFsGplQ+PgTIYu1JcdAPALeH3IYA5EsU4iFYuFT65JpBJiMLV0yMhhrLwRVNLz6fx2QJCgLkPgQG4vuag+DbJIDxcR0Xi4bO7Trn7MhmqDknG4tPrBYDRVpgopyjwN9PbjyCEkT9i5wzm+Ne57RmXHJcJrjJjlFSfU7YdF3rBUKNl1hFUrDmNzF0Ibque3C/HRCY8wsLVi6K/VANb47yyMBySCRvjnCbxnedw1nARxcTbMlYh5w1dmmDghfj2SdVlMC0Ws3yfPy5PaHI8AKkmA+WAksdCEBz/InwbwjOkTp2Od0qcJnCb0JQeJMQ95RiUZxuB565EYG5Kgjk7392xrfLzYGQZnhmSSnzPzSzRGfnpDB+MZAzYamYg3CzjrkR2AdFc3KyNMbaL8oAtLAIvyHOZS4WrLEwmnqeJ0l6cuAscBrdMKeBxeAniVgQ/n7ugdhih9mVR/0nAnNUEFJlk+d4vLFKjpfIrHaICe8DGcQkNeJDoCW3jDNEFsdNpQ2TZal9Em0NRTTkWlgHUOgs9SFARVBIdwhkfHd9y1vcis4Z3AoxFyCXGt7XEEtZZojA3BQEopffX6gee03HRS0GKphtL/+6T+BMwL2QErR02BEJ/JujPL8hx32zF/gbxogyJ9sDeljcBQhMfDHOhjlivaQ1E/RLnQ/iPVweeLyTxaJ3msh0PwguYIJBLTNFYE4KwqUryeEf8qiJbv9CMNnxkcqpLPfDwG+whNryWEBimRmlgy6x3GAdII6AwklXGPJww9hQLOMysnRDgLREUpmhFD+02xDu1QMB3H189GPfDopWka0zhcWvx9bcdTsCc1EQCHAh6C6WQrOE0yUWgZceHy0In1Ly8JCqtRQtHXMlqVBERTcJL6jDUsA0/J04Aaoonj/8HavNGFkSFPK5dwi05Iy/3HH97nYkIZLTEqd5EnCz8SzHXIFYcQimLlUlc5qdetYjEJiDgsDLHF+WZVcEuPE+cYGgwDRJcFmTfFrSVTP8mufa8vGnSNROFL2l4SOgkvLepNBhKYDqeyfhFmxpjwBma6w+NQWstt/FPHtQUAkXZkxIYYTcLMaSOs/dr3TVtSsIkGq82WljuzydaOh3CcxvS31sb5Yog42JeXsJWZ5lWPY2/3+Co2KpV6Wwg9CJeeFsIBiLYj6pCplWELqhT8rr7SQZv274de2FSwzFPFZ1kWcePpqaeVe67n+1/WpWEAgMM5HJro8m5r3zrOBpxRXALTHmq8cNwY0dLoxSha9i0FJkizURBEp6ah82xKdlluRewVG32mJTsaZWg7hxKwRI4SWmICYobFj9YHi1LAiBmhUESE24SVqOROBVkm6+IjBQALi1pIpQDQ3JAYEaG/MplgtcB33lVCF/vO84a+tvBWHcEyfWgJopMcsBK4LdtSsz7Lg78mytEKhVQSDfHDphi8TN9U6SSANcg1CjgSBNhLx2AqPGEMiasFhhISDuhdTTocTlnrshi6WItEbL8AjwG8whmILZlQBcywIRqFVBIKeZUq6WIz9asA0uWf5dEiWgEW4tNxpps1hlSCvFREqK5VjBsFYQuh0wGSfEeliGReCsoUZKLFuBFewrab9hl+LRp0SgRgWBYBfT1u76VEDeM1cCpO3PN5wDPHcEEP50pIcfBQBLDP+uHpSBkaZunOagENQ19TrmNH+N76s54Zez1txy5LgUUqWdc+Zzm4oRqO0HR+T5ByMlgCuGctCl/TKYveeY3sULZ/Miwfd++5GyUrAGUEQG+bykNw16Qu0Hh4+BVFVLHgL4wnPKm+eN5lY7IQB9MoXeTpuA5zGSHmIIl49ATQoCayF/1pGwOz9395RE9PscBEIrctY3MhbBFR9dqmQiBBXWbHW5raQXzeEwK1kjH61UNH0lS53tMsgKwloZE1wKuBYsK0CgJgWBj8hvVoB51y1+LVRF69p/iH4b7gFcQgQTEkB2+iEmyhgTNwJ52DnlsDOGG6WJ8/nzYP6LJAp6paqe5o3mVtsRwHLw4QwKcNxim1gho7gCBGpSEByYmH7g+BD/I91s0BbwU7x3iyKAQjDGc0SxJoKmLhPZHSRSJx1092UHv3LAsuyoyxvt2YE3Yupnf3nIHrmj72Uo9jAkOrNsqU9Aw77GeLHnQIoGyw3ZEkeAm9SYlQWvtSXNEApkSk8PLdRZODhM8kVJj9824ZVCOd9jNiwEmmPq1M/hds4eCMqt5Xc49Nl2HR/2xBd37ex+jQjAb0D2Torn4KmhqqyhXBkCtbyYYOHiA2SJI8ANao9A2DMEVnyw8OPvHganhDQf26GFYlMbEijMyFvjF7bPfYLwUrtYZFE8S7zUahd+f6yTKpWWZgRqsJwt7Xx49ghIJPAz9h0wCdLSTr7FfmpQELgRv1rSdVqse81N95e0TwEAoAo+eRjnJoHjvsCw0SGgKCajgABCSFhu2mNCrAuxqo9kxFAZsnYBA6oTOrV355Pi3WBG1bJPMXwSz834/ZmYqizusxutBgUBv/J3JDWZjGcH6sALJvKd4kDk9LcVTLW3DJ1gCxyjmBFWj2uECoeQ3JB+iILQVygBHlMASA3dKEB95xq6P8G5Y2V6DL2XkuPz7HCBwG1kKYMA71kyEYgpiMn9XZWxDOBzHqUGBcHxB+2fIDIGSElqEpgJN0yUF5T0nPZTtO7By5z4AawErG3jpmg9UIsOj5X0wEh7uA+4fRK7Ubug8NXwe6wFJ2JI+EgtsaT5VBjzfGGpTXGCUJHRbq+pTqmieWt4IX1C0qUqwmQOS9lJQcAn/4Cw+LNJOu8IG+ElfkdJZA8QbPfJCVLRsBQ0ZS6wvnNJIsahdnmWpDvXvsgR14eSeXZJPxxxzqVPxUc/xaXCO4Q4JIsRqOLGModo89oeFYoYkSKHi4CKh2MIwYPEDeAewGVAalQNgovqywkTPSVrf1LDYiNrIAbh2yGVs/KljrI8qniWcEWNstgZTJKTUovyACGbxQgcgUANFgQrCPU+jAREbjIKsA7UmoqKwvKOCIyHSLrqiLUfup4owaIE5a1dXi7pVmsHoeD+7yaJgMOYPCKwkPp9XBD4uQ81tYJwGklzrC8w93Pfvn589AQQ8nKgVsLbZrjBmKuB7XCDev8M9gVVdCqAbAbb6LxErGNn6RiE23nSBXdEMX53Yn+4t2BBNRHVgh+ELlubWkFwwZoup1amz+slfS4MhYk+9RIpM+twoxDt/q5EcCTxEs8bbglFRj5HUGRSBXOKTFbhIGTovKDCdc1xScS08PGPCVjjVogFPc9x715zAQSmVhAwp2JWtQyLwCYl8oCFF1p5mCT22CQfkXTFmdyU1pjVwLvgtcP+FFYzesrtBhBvlnTjEGC8GmC80XwErCDkYzWnlsQL8DFEqICX8j/OaW+ptcIX/+BIoxdK2jM1SAV/h7OC293Uv9GxoJhTtdKxMOk6D8/38xOdvxlYWeGgsRiBHRGY+uVjC0K5BxPz+oZxjpiCmksdl9v1ziNBX4xPtUnghag9pZCsBqhwx+CTGPo8UuPfQNIbU4389ywEsAi8MkE891NJZ7ZbIQvPVTeygjDf4/9KqMmw93y3MNjKCcx6iyRS5XYSMjPgoCetsHYhVoQP6FLlvpKoxeLo+f4nTObHSxPDEIx8zS0Wxv6zeoTFImAFYb5H65zl+NnBj0BEfJNwi4JxsnZByeF2jU95aQKr31uXtqmJ9nOb4FaI1fQgS4HKjbFiaBMt39PWiIAVhBpPJW9NVhDSOFGrgZoNTXK9EKiVHmn6FqSeXm1BRZ2wHDxpelgXsYIbSnpdYie/DTTLH17Ejr2JURCwgjAKzINMYgUhDSvFmqj6eLqGpjD1Ubwq9XJNzzR8C8puQxvNfuYu154p10aNuN9B0rMlHSOxuPNI+mqNG/Ca6kXACkK9Z5NamRWEFEJH/v3EgSK6qTUUzFAxz0VOIAlmSILM5iYfknTzGdBezwXXnFRGKoXuIYmaNxYj0AoBKwit4KqqsRWE/OPYV9I+keaY77nVzkVQDvAlz4EZcoPpywJLp0s3l3nK7iqJqospuaikz6ca+e9GYCcEplYQnisJE5mlPQLglsp1bj/qcnt8XNKlI9uDiz5GslQjMmQ3UH2PSp41CkFxXx+psmiN+x9qTTn0yVgOIAU7eKhFeNzlIzC1ggCtLC8QS3sEjifpT+27rbbHJUM56iYAII4590xYFrfvgSA1uB9qc5UQBPoBSb9b7VNXfuN3CvTJqXc3wbkoxRYj0BmB1EPWeeAWHZ3/3AKsLU1rOLtuK5+u16WCWf64kSWcVNL/TLfEXjNzs8TsTBnwk/QaqVtn6KF/LOkbkq7UbQj3iiAAaRaEaNQdaRJ4DnArcAYWI9ALgRo+MlYQuh1hDWfXbeXT9TpmIJfC9Nokj5H0kOmWWGRmXA4XkARj5FjyREmHhqJfcExYyiKANeYlkk6YGJZn+4Nlp/Zoa0Wgho8MtMCkcFnyEaC+wlqr/eWj1Nzy1yG7oanF2SV9q8RElYzxwBCrwHKOH2GYzF0ugYa4DVDuLy8JVk/LcAicL1gOThOZAmp1ymTzbrAYgSII1KAgwAD24iK7Wc8gp5T08/Vst/hOeeES2X2syMgorX8rPvO0A/J7v/q2oEHIl1L1Hoh12W/L0kkNpY4Kyr1lWAQuKIkCY1iEYnLlmWW1DIuaRy+CQA0KwhklHV5kN+sZhFug67f3O28K2myKW+000otCWl6/WdzbCHRHgIsA3BEQZMXE74PuGLtnBIEaFAT48LnN2WSe96hCeHKFBd5u83ZfthWWKyxYTbJ/gj+h7Go8mhE4CgGsW6+RROxBk5BGikWIqp8WI1AcgRoUBNZAMJX5EPKO1x+tPJxyWqWsV0TlE9hoMQJjI/CZDH6LOWfcjI2n5+uAQA0KAssmavxRHda/ti7cGK7vCnhFjx3q31dERoTWmPRBR+YXhd2DRRDAvXXbyN9xL8L8CceExQgMhkAtCgI+NPJ3LXEECAqL5UAbv24IfDtEgDf1dgBYN1zdqz0COZYDshW+235o9zAC7RCoRUFg1W+SdN12y19d6yXk6Nd4aBAnQUl7zsjiiPtwqdwaT285a0rFxJBaeqPA5bGcXXsn1SJQk4JwIknwh1uaEajpvJZ2TtzKoFtuijng2SQg7FNL27j3UwUCPFeXSKzkKsGtQGyMxQgMjkBNHxzqmVPX3MGKOx/7fSQ9efAnYt0TvDvEGzSh8DDHyqz7ARlg9yikWA5uGRmbmIO7mS9mAPQ9ZBSBmhQEFkq1vY9KQlmw7IrAvSU9xaAMjsCzJN05MgsVNK3EDn4Mq5kAWmTcVzE5UNLDTUy1mmeimo3WpiAAzGdDsZFqQKpoIZcJFRy/JMlmxmEO5lqSXhehI/5eUGR/NMz0HnUlCMDU+TJJN47sl6ylt0iirLfFCIyOQI0KAmvyx6/5UQAbAjrfGShYR39oVjDhdSS9ObJPIs1T/uIVwOQt9kDgbZKumehPGiOlvKkdYjECoyNQo4IACPjbqG9vV0P6kSBn+pFOe0oD1bLFXSQ9M9Ln6xkUuC2ndPMVIIDl4PWSsFTF5DBJZ1sBHt5ixQjUqiBQz55qejCFWfIQgI2SqnpPz2vuVgkEqOhIWiNU4DsJgWO85F1a149SGwRwX2EViAkZDdew5aANrG47BAK1Kgibvf5B0vGG2PjCx7yVJEyY5E3bXdPvsClt3JT6SLljOPPxFVuMQAyBfwn8Bf+ZgIl02pMYSiNQAwK1KwhU23tJoixvDTiWXgO13XEdYObuKigHL5X0Y6fmdYXwiH5PkkQGSZOQ9XDXXjO48xoQgM4bWu+YfCxwbXAxshiByRGoXUEAoG9Iwty7Jrl8SPfkfE5YgECKmy7j+MXT7SmigualIl33lbRft6HdawUI5JAgAQMxV/xWLUagCgTmoCAA1BtCkaIqQBt4EZBF7WQ5wN9NmiMR9l0VJkzhVIMkCv89A+9jScPjRvhrZEN/k3TikIK6pH17L/0RwIqHyy8mWA7gQrCrqj/eHqEgAnNREIj8/fgK+BHeFaq04fdukhNIAo9f9ngOKPqENQHSnwf2GGdNXUlJI66jSf7HQbVrehyy9vo5SRdJtOR3eAorl1l4utHICMxFQdjA8taM9KCRISw2HdHNMdKUnSaC0e9iwbrSJ+PjjpIgAHpvsd0scyDiYW4d2RqZJMQjODB0meffZlcvkHQ7SbF3LK4rrIIWI1AlAnNTECh1zC179yrR7L4olAO42GNm7Njo/yGJksS8lLoKN5mfSLpHwLjrOEvuhxIWs9wQGEruOjha1osANT0orBR7v/534NFwgbr1PifV73xuCsIGUH6AV5RE6tCc5duSiG4myK2UXEDSQzNyrWPzYS5/gKSfJszqpdY8p3FOLwmfMf9tEszKlI+2rA+BJ0iisFqM5M1MnOt7Lma547kqCFgSzi/p07NE/ahFn0HS9wfaAx+pc4ZUx65TEAtB3YeL22y+C4Rw6Meq7xGYdpuuoLvfmDI6kQAAERlJREFUbBF4sKR9InU82BgEcJeU9KvZ7tILXw0Cc1UQNgd08lAf/XwzOjEilalYiQkyFoxYckt3CvENfOiP33FguBngpfimJGiG1y5YEWL+4716unzWju+c9s979CaSXplwK6BsX3BOG/Na143A3BUETu+U4YZLAOMc5EqSPjTBjZyzJpefdLx39ACKKoZfDS9DgvbWKtCBf1ES8R9NcjpJrvq4/Cdkt+B2aqLlBoFDglu0T/bR8pH0DqtCYAkKwgbQ44YP77kCKVBNQP9A0qGS9qhoUQRG8mKDUwHsugikLrgyiFVY44fw/pIeHwGO1NyrS/p9F3DdZxYInEUSsUQxwep2jlnsxos0AlsQWJKCsNkWhCME/V2ukpMmYIkbO9XZahNqDGDRwFT+sB6L4wWI+fRpkkjdWpPgSnheZMNvX3Bq7prOeae9nio87ygJTfLZoCQ65mDtT8sM979EBWFzDP8m6U1Bc+eHPJZwqyaFidsj3OtzyomHh+Gxks7UA6yfhTRU0iaHCsDssbziXY8d6l3wvDXJacMzUXxyDzgZArg2sZzFBKsa2S5zegdMBqgnrg+BJSsIG7T5gVI6FVN6rOhO39PhJUAEMy8NFJNf9B1wwv53Dq6DPXusAQWBaH94FcYKxuyx3F5dcbN8MlJUjGfiqsEP3Wsid64CAbKPKPN95shqyLCCfdMxB1UcmRfRBYE1KAjbceF2TAQ6lMXs/0QdgMOnvOFNx7wMXfFSbwkoPbhJwKnr8wKvwkXDLfpPHfCeQxcsLzHa6kf1dOPMAYM1rJEsoFRMCcoxAaq/XgMg3uNyEej6wl8KItQ0uF+HzRC9jxthTQJOVIREYegqXwnESxTfWiKRUIoKHAwP6gqe+02OwFklvU8SFoQm+XIoqPZfk6/WCzACPRFYu4LQE75VdochDh4EKIW7CnEaWGCokrgkYT98GE7TsCn2TC0H8uUt80MAK2HqnQkJ0twJ3OZ3Ml7xIAikHvZBJvWgi0CA4DwKE1Es6qY9dkSGx4clvVPS13qMU0tXskEOiCzmtYFUp5b1eh1pBEhRfL8kgk2bBHcCyl+s4md6JrcwAhUhYAWhosOY6VK4NROfwEfxLj32gF/3h4EeuscwVXQlyPNZkZU4L76KY8peBEW4iFlqEiwLuI+enD2iGxqBGSBgBWEGhzSzJRK0SZ0MghK7CpHfD5JErMffug4yYb9UQScCNYlwJxJ+LOE8OJeNUOKb7IvUOwB3EBVUyczZCAySS4wh2X4W1DIhoBnWzJhQoAnSLIsRWBQCqZfDojbrzYyGAJwAvFSpCHmHHrN+N/j0byiJTIg5CUrC9yILJg32FANviFiIV4WYCM4jxtXQZimcBUoc5F8Upfp5m84zagunR+qMHi7pkTPak5dqBLIRsIKQDZUb9kDg9SEDggJVXQXiKUy4xCvMJbf82pLeEtnwb0NtjK6Y7NQPJlHoxsk2SX3cSs1LRs/+oVIhdUbmLsQcfCGDgvwZku4+9816/UagCQErCH42xkKAEt1U3eRGGyOYSa2HDApoa2OVFFNjjPX3k4RqoxdqmBDzPR+YZxZa0GeCchDzlxeaasdhiCMh0JSqoXMV6MfJRIHHICaUdob7wmIEFouAFYTFHm3VG6NMN37b80i6cI+VPjpEl/NRStHe9pimd1du2KeOjAKXP+6ULnJZSVgq9u7SecA+nC+8EPjw5yKcA26T1HuRAFQyeCxGYNEIpH4Ii968Nzc5AtywuW0+JVBhd1kQt3AqZX5L0o26DDBCH9ZFemOTsH6sK23lpSHFtFY+CQJMCW68SduNTdCeZ5HAy5R1i+DZx02wPk9pBEZHwArC6JB7wgYE/kUSle8IrOtTXIuPLYFzMNpt6LBrAB0GRSirmwQF4laS/ppYLERVMPphNeF/z0FQ4lCAWHONlOS4EyjZDLdHTHAF3W0OgHuNRqAEAlYQSqDoMUoiQCoe6WW3lLRHj4HfGD5I+Inhxp9a+JjHFBY+nNxeY5kP7AFF4oqSTjr1hlrOT2onZFhkpNQkKKPQJ583sSjHHNR0al7LKAhYQRgFZk/SAwECxrjZ/XuPMd4eggEhYprSqoACcEiCdIfMg50qgWJhebGkW/TAoYaur5B0u0r4LU4s6fOSdksA8/RQlbQG/LwGIzAaAlYQRoPaE/VAAOXgepIekhFdHpsGnz0f3y4Funosf5euZC08LTIY5EnX2VYxkA8ZKXVzVw422351wIAS2VMJgbIvD2W4Y2uAOptKnBYjsDoErCCs7shnv+GzB24B/MaU3u0qt5dEVUlM32OzNcJ/QGXMJrncluh/IuupV8G+lyTgjqvkUxNsilRGrAJQYseEuJEplckJoPGURuAoBKwg+GmYKwIUzrltsCocr+MmcDdQXAfqYIh+xhLW+15Jl45MSOGfH0l6gaQzjrWwkef5i6Q9JeF2GEvI+ID9kH8x4XnoU9p8rP14HiMwGAJWEAaD1gOPhAC3QYpFQZ7UR1AWKMPMh3kMOTDBXUDkP//mkqnQFbM/S4Jhcyy+BFxVWI5i7z5cCrgWLEZg1QhYQVj18S9u82Q97C7pPyU1sRfmbHpfSV8Nrowh3Q+QCdmEfWTgJoRZQweQYnF6UeIBQHGjhojFCKweASsIq38EFgkAsQnH7VlECD4Cyvxy27zTQCjx+3uPpCsPNP6chqWGA4rdUHLjYCHC4tQkKIb7DbUAj2sE5oaAFYS5nZjX2xaBq0ri4wAdMZHrXWWvkFnwmq4DNPTD6gHbYK1siIW3Gx3u2ZLuMsCENwvKQWxoskTuEdw6AyzBQxqB+SFgBWF+Z+YVd0OA8ssXk/QSSV2DGv8eaiZggo5VaWy7QjIUvtG200Lbw1RYqngVEMGq+XxJ8Eg0yQEhIJGYD4sRMAIBASsIfhTWiMAFQhT79XtsHhcEMQRUUKQoUV+BE+CSfQdZQP+fBRy6Fq/aCgF8Em9OYAIXwh1DuusC4PMWjEA5BKwglMPSI80PAQpFQcKU+ojEdgZF8uckPVISjI1d5fWSbtC188L6kfYI1XYfuYMkXBaxLBCYKanKCCeDxQgYgW0IWEHwI2EEjkQA4iQ+SpSghu64ixCFf1NJXw9ZELljULL5o7mNV9JuK1lU2y1fTdK7Ep0+HmJTftx2cLc3AmtBwArCWk7a+8xFAPcDVoXUByY2Hh8dqkkyBqWsU/KbwOWQaremv8M2CcV0WyHIMRXDgPviSpIObzu42xuBNSFgBWFNp+29tkWAlLfrSoLuuA+tM0rHHyUdtsMCqC9hrv+dT6ZtHQTSRWGojMlPQ1opZcEtRsAIRBCwguDHwwjEEeA3wm3zUpIe0YPZEKZHOA+eK+nDYUr841+QRIlry9ERwAoD4VUOgRLZD9RXSAnuHNwLFiNgBBIIWEHwI2IE2iHALZW0OdImu8rvQ8VGTNwlovW7rmMO/c4g6fuJhULVjPIVkz8EtsZvzmHTXqMRqAEBKwg1nILXMEcEuLESq2DO/mFPLxWLQBYCJEcpQbF7f6qR/24EjMBRCFhB8NNgBPoj8GBJ/IOAKUbl23+mdY4ArjulIuZkK8BXQTVMZyus89nxrnsgYAWhB3juagS2IUCaJB8jmPks5RCAkOr+24aD3Og5GVNAtZ0KXMwYxk2MwPoQsIKwvjP3jodHAFrfN0q61vBTrWKGJ24rjU1dDcitUu+vE4b6GasAyZs0AqURSP3ASs/n8YzAmhBAUSAvHwplCgZZuiNwylCd89ahZHOMIZGaGdfMCFzsvhr3NAIrQMAKwgoO2VucHAEqNf5b4FTIMYtPvuAKF4CCQDnol2VUvtwoExVuw0syAvNBwArCfM7KK10OAq4a2P4sHypp/0QQKGRUFGhytkJ7fN3DCBwNASsIfiiMwPgIWEEYBvPdJH1nmKE9qhFYHwJWENZ35t7x9AhYQSh7BnAlELj4kbLDejQjsG4ErCCs+/y9+/ERgCeBIDpLOQSgqoaW2WIEjEBBBKwgFATTQxmBDAT2kvS8jHZukkaAKpiQJX063dQtjIARaIuAFYS2iLm9EeiHwAsk3b7fEO4dELiEpM8YDSNgBIZBwArCMLh6VCPQhIAVhP7PBjEHl5N0SP+hPIIRMAJNCFhB8LNhBMZFwApCf7x3d0BifxA9ghFIIWAFIYWQ/24EyiJgBaE7nhRsuoCkb3Ufwj2NgBHIRcAKQi5SbmcEyiBgBaE7jq+QdBtJ/+g+hHsaASOQi4AVhFyk3M4IlEHACkJ3HF8oac/u3d3TCBiBNghYQWiDltsagf4IWEHojqEVhO7YuacRaI2AFYTWkLmDEeiFgBWE7vBZQeiOnXsagdYIWEFoDZk7GIFeCFhB6A6fFYTu2LmnEWiNgBWE1pC5gxHohcCtJL201wjr7Xw9SW9e7/a9cyMwLgJWEMbF27MZgWM4Cr/zQ3As17HojJ07GoHWCFhBaA2ZOxiB3gi4mmM3CP2+6oabexmBTgj4B9cJNncyAr0QsILQDT6/r7rh5l5GoBMC/sF1gs2djEAvBK4v6Q29Rlhf5ztJeu76tu0dG4HpELCCMB32nnm9CJxC0s/Wu/1OOz+lpJ936ulORsAIdELACkIn2NzJCPRCwApCe/isILTHzD2MQC8ErCD0gs+djUBnBJ4o6b6de6+r40GS7reuLXu3RmB6BKwgTH8GXsE6EThQ0t7r3HrrXT9B0v1b93IHI2AEeiFgBaEXfO5sBDojYD6EfOj8nsrHyi2NQDEE/MMrBqUHMgKtEfiDpOO17rWuDo+T9KB1bdm7NQJ1IGAFoY5z8CrWicAxzQwYPXj4Iv7VGK3zx+FdT4+AFYTpz8ArWC8C/P7eK+lK64UguvPXSbqJJBNL+QExAhMgYAVhAtA9pRHYgsBDJD3KiBwNgX9IurOk5xsbI2AEpkHACsI0uHtWI7AVgd9IOpEh2QWBd0u6ujExAkZgOgSsIEyHvWc2AhsETiXpJ4ZjFwSOL+mPxsQIGIHpELCCMB32ntkIbEXgWcGkblSku0t6hoEwAkZgWgSsIEyLv2c3AhsE/k3SoZJOu3JIfiTpvJL+Z+U4ePtGYHIErCBMfgRegBH4JwJXk/SuleNxMkm/WjkG3r4RqAIBKwhVHIMXYQT+icAjJO23Ujz2kbT/SvfubRuB6hCwglDdkXhBRuCI1L49V4bDKyXdYmV79naNQNUIWEGo+ni8uBUj8GJJt1nJ/ok3OJ2zFlZy2t7mbBCwgjCbo/JCV4bA2SW9Q9JZFr7v30u6qqRPLnyf3p4RmB0CVhBmd2Re8IoQuLikF0k654L3fBVJ71vw/rw1IzBbBKwgzPbovPCVIHAKSfjnl1av4U+SLinpkJWco7dpBGaHgBWE2R2ZF7xCBI4hiewGovyXIIdJupdTOpdwlN7DkhGwgrDk0/XelobA0yTdTdKcf7fPlXQXSf+7tMPxfozA0hCY84tmaWfh/RiBHAQeKGkPSZfNaVxRm79LOlAS1SstRsAIzAABKwgzOCQv0QhsQ+BfJP1FEq6HOcj/STpeWDP/22IEjMAMELCCMIND8hKNQAMCV5b0CkkEMtYof5a0r6TH1bg4r8kIGIE4AlYQ/IQYgXkjcPJAqPSEyraxt6SXS/ppZevycoyAEchEwApCJlBuZgRmgMBLJFHw6ZQTrfUjkr63IgbIiWD2tEZgHASsIIyDs2cxAmMhcCZJp5ZEtsC5R5r0NZIOkPQDSb8daU5PYwSMwMAIWEEYGGAPbwQmROAk4cN9hsDGuFuBtXxX0lfDOE+UhNXAYgSMwAIRsIKwwEP1lozADgicMRRE2vwJC0MOhTP1IOBf+EPo+CNJhxthI2AElo/A/wcxGCmR7t61UgAAAABJRU5ErkJggg==;" vertex="1" parent="1">
          <mxGeometry x="451" y="412" width="120" height="96" as="geometry" />
        </mxCell>
        <mxCell id="VhixGoPvEmZmPIJjaZZ9-16" style="edgeStyle=orthogonalEdgeStyle;rounded=0;orthogonalLoop=1;jettySize=auto;html=1;" edge="1" parent="1" source="VhixGoPvEmZmPIJjaZZ9-9" target="bHiuAwHFq15JDa2T4GA8-18">
          <mxGeometry relative="1" as="geometry" />
        </mxCell>
        <mxCell id="VhixGoPvEmZmPIJjaZZ9-9" value="" style="sketch=0;outlineConnect=0;fontColor=#232F3E;gradientColor=none;fillColor=#3F8624;strokeColor=none;dashed=0;verticalLabelPosition=bottom;verticalAlign=top;align=center;html=1;fontSize=12;fontStyle=0;aspect=fixed;pointerEvents=1;shape=mxgraph.aws4.iot_analytics_pipeline;rotation=90;" vertex="1" parent="1">
          <mxGeometry x="471" y="280" width="80" height="43.08" as="geometry" />
        </mxCell>
      </root>
    </mxGraphModel>
  </diagram>
</mxfile>
